<svg xmlns="http://www.w3.org/2000/svg" xmlns:xlink="http://www.w3.org/1999/xlink" width="500" zoomAndPan="magnify" viewBox="0 0 375 374.999991" height="500" preserveAspectRatio="xMidYMid meet" version="1.0"><metadata><ContainsAiGeneratedContent>Yes</ContainsAiGeneratedContent></metadata><defs><g/><clipPath id="280ee6b81e"><rect x="0" width="70" y="0" height="89"/></clipPath></defs><g transform="matrix(1, 0, 0, 1, 152, 151)"><g clip-path="url(#280ee6b81e)"><g fill="#0c3470" fill-opacity="1"><g transform="translate(2.506362, 65.400676)"><g><path d="M 31.578125 -63.15625 C 35.960938 -63.15625 40.097656 -62.320312 43.984375 -60.65625 C 47.878906 -58.988281 51.285156 -56.691406 54.203125 -53.765625 C 57.128906 -50.847656 59.425781 -47.457031 61.09375 -43.59375 C 62.757812 -39.738281 63.59375 -35.617188 63.59375 -31.234375 C 63.59375 -26.847656 62.757812 -22.722656 61.09375 -18.859375 C 59.425781 -14.992188 57.128906 -11.613281 54.203125 -8.71875 C 51.285156 -5.832031 47.878906 -3.566406 43.984375 -1.921875 C 40.097656 -0.285156 35.960938 0.53125 31.578125 0.53125 C 27.253906 0.53125 23.160156 -0.285156 19.296875 -1.921875 C 15.441406 -3.566406 12.050781 -5.832031 9.125 -8.71875 C 6.195312 -11.613281 3.898438 -14.992188 2.234375 -18.859375 C 0.566406 -22.722656 -0.265625 -26.847656 -0.265625 -31.234375 C -0.265625 -35.617188 0.566406 -39.738281 2.234375 -43.59375 C 3.898438 -47.457031 6.195312 -50.847656 9.125 -53.765625 C 12.050781 -56.691406 15.441406 -58.988281 19.296875 -60.65625 C 23.160156 -62.320312 27.253906 -63.15625 31.578125 -63.15625 Z M 31.578125 -34.5625 C 30.816406 -34.5625 30.097656 -34.253906 29.421875 -33.640625 C 28.753906 -33.023438 28.421875 -32.222656 28.421875 -31.234375 C 28.421875 -30.296875 28.753906 -29.488281 29.421875 -28.8125 C 30.097656 -28.144531 30.816406 -27.8125 31.578125 -27.8125 C 32.515625 -27.8125 33.316406 -28.144531 33.984375 -28.8125 C 34.660156 -29.488281 35 -30.296875 35 -31.234375 C 35 -32.222656 34.660156 -33.023438 33.984375 -33.640625 C 33.316406 -34.253906 32.515625 -34.5625 31.578125 -34.5625 Z M 31.578125 -34.5625 "/></g></g></g></g></g></svg>